<svg width="24" height="24" viewBox="0 0 24 24" fill="none" xmlns="http://www.w3.org/2000/svg">
<path opacity="0.34" d="M16.9609 6.16992C18.9609 7.55992 20.3409 9.76992 20.6209 12.3199" stroke="#292D32" stroke-width="1.5" stroke-linecap="round" stroke-linejoin="round"/>
<path opacity="0.34" d="M3.49023 12.3697C3.75023 9.82973 5.11023 7.61973 7.09023 6.21973" stroke="#292D32" stroke-width="1.5" stroke-linecap="round" stroke-linejoin="round"/>
<path opacity="0.34" d="M8.18945 20.9404C9.34945 21.5304 10.6695 21.8604 12.0595 21.8604C13.3995 21.8604 14.6595 21.5604 15.7895 21.0104" stroke="#292D32" stroke-width="1.5" stroke-linecap="round" stroke-linejoin="round"/>
<path d="M12.0593 7.69965C13.5946 7.69965 14.8393 6.455 14.8393 4.91965C14.8393 3.3843 13.5946 2.13965 12.0593 2.13965C10.5239 2.13965 9.2793 3.3843 9.2793 4.91965C9.2793 6.455 10.5239 7.69965 12.0593 7.69965Z" stroke="#292D32" stroke-width="1.5" stroke-linecap="round" stroke-linejoin="round"/>
<path d="M4.83078 19.9204C6.36613 19.9204 7.61078 18.6757 7.61078 17.1404C7.61078 15.605 6.36613 14.3604 4.83078 14.3604C3.29543 14.3604 2.05078 15.605 2.05078 17.1404C2.05078 18.6757 3.29543 19.9204 4.83078 19.9204Z" stroke="#292D32" stroke-width="1.5" stroke-linecap="round" stroke-linejoin="round"/>
<path d="M19.1706 19.9204C20.706 19.9204 21.9506 18.6757 21.9506 17.1404C21.9506 15.605 20.706 14.3604 19.1706 14.3604C17.6353 14.3604 16.3906 15.605 16.3906 17.1404C16.3906 18.6757 17.6353 19.9204 19.1706 19.9204Z" stroke="#292D32" stroke-width="1.5" stroke-linecap="round" stroke-linejoin="round"/>
</svg>
